<svg xmlns="http://www.w3.org/2000/svg" viewBox="0 0 480 480">
  <defs>
    <linearGradient id="background" x1="55" y1="20" x2="425" y2="455" gradientUnits="userSpaceOnUse">
      <stop offset="0" stop-color="#3d3d3f"/>
      <stop offset="0.48" stop-color="#222224"/>
      <stop offset="1" stop-color="#070708"/>
    </linearGradient>
  </defs>
  <rect width="480" height="480" rx="104" fill="url(#background)"/>
  <rect x="84" y="146" width="312" height="188" rx="94" fill="#ffffff"/>
  <path fill="#171719" d="M181 169c-40 0-72 31-72 71s32 71 72 71c27 0 51-15 63-37l-22-18c-8 15-23 24-41 24-23 0-41-17-41-40s18-40 41-40c18 0 33 9 41 24l22-18c-12-22-36-37-63-37z"/>
</svg>
